<?xml version="1.0" encoding="utf-8"?>
<svg x="187.614pt" y="103.446pt" width="1032.64pt" height="200.411pt" viewBox="187.614 103.446 1032.64 200.411" xmlns="http://www.w3.org/2000/svg" xmlns:xlink="http://www.w3.org/1999/xlink">
  <defs>
    <title>Text</title>
    <g id="1">
      <defs>
        <path id="2" d="M364.618,181.17 C373.125,181.903,380.018,183.81,385.298,186.89 C388.085,188.356,390.431,190.19,392.338,192.39 C394.245,194.59,395.785,197.156,396.958,200.09 C396.958,200.09,397.398,201.41,397.398,201.41 C398.131,203.903,398.645,206.433,398.938,209 C399.231,211.566,399.451,214.243,399.598,217.03 C399.598,223.043,398.865,229.203,397.398,235.51 C393.438,255.163,386.031,269.316,375.178,277.97 C364.911,286.916,350.025,291.39,330.518,291.39 C330.518,291.39,215.018,291.39,215.018,291.39 C210.911,291.39,207.391,290.803,204.458,289.63 C201.525,288.456,199.031,286.916,196.978,285.01 C194.925,283.103,193.275,280.94,192.028,278.52 C190.781,276.1,189.865,273.643,189.278,271.15 C187.665,265.283,187.225,258.463,187.958,250.69 C187.958,250.69,189.058,245.63,189.058,245.63 C189.498,242.696,191.185,241.23,194.118,241.23 C194.118,241.23,320.618,241.23,320.618,241.23 C322.231,241.23,323.808,241.156,325.348,241.01 C326.888,240.863,328.318,240.57,329.638,240.13 C332.425,239.25,334.111,237.636,334.698,235.29 C334.991,234.263,334.955,233.2,334.588,232.1 C334.221,231,333.525,230.303,332.498,230.01 C331.618,229.57,330.591,229.276,329.418,229.13 C328.245,228.983,327.071,228.836,325.898,228.69 C325.898,228.69,238.778,228.47,238.778,228.47 C230.271,228.03,223.378,226.196,218.098,222.97 C215.311,221.356,212.855,219.56,210.728,217.58 C208.601,215.6,206.878,213.29,205.558,210.65 C204.531,208.596,203.651,206.25,202.918,203.61 C202.185,200.97,201.671,198.036,201.378,194.81 C201.231,189.236,201.818,182.856,203.138,175.67 C205.191,166.136,207.905,157.813,211.278,150.7 C214.651,143.586,218.758,137.683,223.598,132.99 C233.131,123.456,246.331,118.69,263.198,118.69 C263.198,118.69,384.858,118.69,384.858,118.69 C390.285,119.423,395.125,120.963,399.378,123.31 C403.045,125.363,406.381,128.223,409.388,131.89 C412.395,135.556,413.898,140.616,413.898,147.07 C413.898,147.07,411.038,164.45,411.038,164.45 C410.745,165.77,410.158,166.796,409.278,167.53 C407.958,168.41,406.858,168.85,405.978,168.85 C405.978,168.85,278.378,168.85,278.378,168.85 C275.445,168.85,272.878,169.29,270.678,170.17 C267.891,171.05,266.278,172.59,265.838,174.79 C265.545,175.816,265.728,177.136,266.388,178.75 C267.048,180.363,269.285,181.243,273.098,181.39 z M535.338,287.21 C535.045,288.383,534.421,289.373,533.468,290.18 C532.515,290.986,531.451,291.39,530.278,291.39 C530.278,291.39,473.738,291.39,473.738,291.39 C472.565,291.39,471.648,290.986,470.988,290.18 C470.328,289.373,470.145,288.383,470.438,287.21 C470.438,287.21,495.078,171.05,495.078,171.05 C495.078,171.05,430.178,171.05,430.178,171.05 C429.005,171.05,428.088,170.646,427.428,169.84 C426.768,169.033,426.585,168.043,426.878,166.87 C426.878,166.87,436.338,122.65,436.338,122.65 C436.631,121.476,437.255,120.486,438.208,119.68 C439.161,118.873,440.225,118.47,441.398,118.47 C441.398,118.47,633.678,118.47,633.678,118.47 C634.851,118.47,635.768,118.873,636.428,119.68 C637.088,120.486,637.271,121.476,636.978,122.65 C636.978,122.65,627.518,166.87,627.518,166.87 C627.225,168.043,626.601,169.033,625.648,169.84 C624.695,170.646,623.631,171.05,622.458,171.05 C622.458,171.05,559.978,171.05,559.978,171.05 z M952.458,284.13 C953.631,285.303,953.705,286.77,952.678,288.53 C951.798,290.29,950.258,291.17,948.058,291.17 C948.058,291.17,880.298,291.17,880.298,291.17 C880.298,291.17,807.478,209.99,807.478,209.99 C807.478,209.99,791.198,286.99,791.198,286.99 C790.758,288.31,790.098,289.336,789.218,290.07 C788.191,290.803,787.165,291.17,786.138,291.17 C786.138,291.17,729.378,291.17,729.378,291.17 C728.205,291.17,727.251,290.803,726.518,290.07 C726.225,289.63,726.005,289.19,725.858,288.75 C725.711,288.31,725.785,287.723,726.078,286.99 C726.078,286.99,761.058,122.21,761.058,122.21 C761.205,121.33,761.791,120.376,762.818,119.35 C763.698,118.616,764.798,118.25,766.118,118.25 C766.118,118.25,899.878,118.25,899.878,118.25 C906.185,118.25,911.831,118.506,916.818,119.02 C921.805,119.533,926.425,120.156,930.678,120.89 C939.038,122.65,945.271,125.73,949.378,130.13 C953.778,134.53,956.418,140.25,957.298,147.29 C958.031,154.916,957.298,164.23,955.098,175.23 C953.191,183.883,950.845,191.803,948.058,198.99 C946.591,202.363,945.015,205.48,943.328,208.34 C941.641,211.2,939.771,213.803,937.718,216.15 C933.758,220.843,929.065,224.583,923.638,227.37 C921.145,228.836,918.285,230.046,915.058,231 C911.831,231.953,908.458,232.723,904.938,233.31 z M880.518,189.53 C883.451,189.53,886.018,188.87,888.218,187.55 C890.565,185.936,892.105,183.883,892.838,181.39 C893.278,179.043,892.618,177.136,890.858,175.67 C889.245,174.35,887.118,173.69,884.478,173.69 C884.478,173.69,815.178,173.69,815.178,173.69 C815.178,173.69,811.878,189.53,811.878,189.53 z M1061.36,118.47 C1062.53,118.47,1063.45,118.873,1064.11,119.68 C1064.77,120.486,1064.95,121.476,1064.66,122.65 C1064.66,122.65,1051.46,184.03,1051.46,184.03 C1065.68,173.176,1080.17,162.213,1094.91,151.14 C1109.65,140.066,1124.06,129.176,1138.14,118.47 C1138.14,118.47,1216.68,118.47,1216.68,118.47 C1218.73,118.47,1219.9,119.35,1220.2,121.11 C1220.49,122.87,1219.68,124.41,1217.78,125.73 C1217.78,125.73,1111.3,201.85,1111.3,201.85 C1111.3,201.85,1169.16,257.73,1169.16,257.73 C1169.16,257.73,1196.22,283.91,1196.22,283.91 C1197.39,285.083,1197.5,286.623,1196.55,288.53 C1195.59,290.436,1194.09,291.39,1192.04,291.39 C1192.04,291.39,1106.9,291.39,1106.9,291.39 C1106.9,291.39,1043.76,220.55,1043.76,220.55 C1043.76,220.55,1029.68,287.21,1029.68,287.21 C1029.38,288.383,1028.76,289.373,1027.81,290.18 C1026.85,290.986,1025.79,291.39,1024.62,291.39 C1024.62,291.39,967.858,291.39,967.858,291.39 C966.685,291.39,965.768,290.986,965.108,290.18 C964.448,289.373,964.265,288.383,964.558,287.21 C964.558,287.21,999.538,122.65,999.538,122.65 C999.831,121.476,1000.45,120.486,1001.41,119.68 C1002.36,118.873,1003.42,118.47,1004.6,118.47 z"/>
      </defs>
      <use xlink:href="#2" style="fill:#000000;fill-opacity:1;fill-rule:nonzero;opacity:1;stroke:none;"/>
    </g>
  </defs>
  <use xlink:href="#1"/>
  <g id="3">
    <title>Group</title>
    <g id="4">
      <title>Group</title>
      <defs>
        <title>Shape 401</title>
        <g id="5">
          <defs>
            <path id="6" d="M656.027,104.839 C656.027,104.839,684.477,178.815,684.477,178.815 C684.477,178.815,771.107,180.411,771.107,180.411 C771.107,180.411,702.059,227.726,702.059,227.726 C702.059,227.726,727.151,302.689,727.151,302.689 C727.151,302.689,656.027,257.955,656.027,257.955 C656.027,257.955,584.904,302.689,584.904,302.689 C584.904,302.689,609.996,227.726,609.996,227.726 C609.996,227.726,540.948,180.411,540.948,180.411 C540.948,180.411,627.578,178.815,627.578,178.815 C627.578,178.815,656.027,104.839,656.027,104.839 z"/>
          </defs>
          <use xlink:href="#6" style="fill:#aaaaaa;fill-opacity:1;fill-rule:evenodd;opacity:1;stroke:none;"/>
        </g>
      </defs>
      <use xlink:href="#5"/>
      <defs>
        <title>Shape 402</title>
        <g id="7">
          <defs>
            <path id="8" d="M656.027,106.232 C665.355,130.486,674.682,154.74,684.01,178.994 C684.05,179.099,684.091,179.204,684.131,179.309 C684.243,179.311,684.355,179.313,684.467,179.315 C712.823,179.837,741.179,180.359,769.535,180.882 C746.949,196.359,724.363,211.836,701.777,227.314 C701.673,227.385,701.569,227.456,701.465,227.527 C701.505,227.646,701.545,227.766,701.585,227.885 C709.801,252.43,718.017,276.975,726.232,301.52 C702.919,286.857,679.607,272.195,656.294,257.532 C656.205,257.476,656.116,257.42,656.027,257.364 C655.939,257.42,655.85,257.476,655.761,257.532 C632.448,272.195,609.135,286.857,585.823,301.52 C594.038,276.975,602.254,252.43,610.47,227.885 C610.51,227.766,610.55,227.646,610.59,227.527 C610.486,227.456,610.382,227.385,610.278,227.314 C587.692,211.836,565.106,196.359,542.52,180.882 C570.876,180.359,599.232,179.837,627.587,179.315 C627.7,179.313,627.812,179.311,627.924,179.309 C627.964,179.204,628.005,179.099,628.045,178.994 C637.372,154.74,646.7,130.486,656.027,106.232 z M655.561,104.659 C646.118,129.213,636.675,153.767,627.232,178.321 C598.468,178.851,569.703,179.381,540.939,179.911 C540.418,179.92,539.897,179.93,539.376,179.939 C539.806,180.234,540.235,180.529,540.665,180.823 C563.577,196.524,586.49,212.225,609.402,227.925 C601.078,252.793,592.754,277.662,584.43,302.53 C584.282,302.972,584.134,303.415,583.986,303.857 C584.381,303.609,584.776,303.36,585.171,303.112 C608.789,288.256,632.408,273.401,656.027,258.546 C679.646,273.401,703.265,288.256,726.884,303.112 C727.279,303.36,727.674,303.609,728.069,303.857 C727.921,303.415,727.773,302.972,727.625,302.53 C719.301,277.662,710.977,252.793,702.653,227.925 C725.565,212.225,748.478,196.524,771.39,180.823 C771.82,180.529,772.249,180.234,772.679,179.939 C772.158,179.93,771.637,179.92,771.116,179.911 C742.352,179.381,713.587,178.851,684.823,178.321 C675.38,153.767,665.937,129.213,656.494,104.659 C656.339,104.255,656.183,103.85,656.027,103.446 C655.872,103.85,655.716,104.255,655.561,104.659 z"/>
          </defs>
          <use xlink:href="#8" style="fill:#000000;fill-opacity:1;fill-rule:nonzero;opacity:1;stroke:none;"/>
        </g>
      </defs>
      <use xlink:href="#7"/>
    </g>
    <g id="9">
      <title>Group</title>
      <defs>
        <title>Shape 401</title>
        <g id="10">
          <defs>
            <path id="11" d="M656.027,104.839 C656.027,104.839,684.477,178.815,684.477,178.815 C684.477,178.815,771.107,180.411,771.107,180.411 C771.107,180.411,702.059,227.726,702.059,227.726 C702.059,227.726,727.151,302.689,727.151,302.689 C727.151,302.689,656.027,257.955,656.027,257.955 C656.027,257.955,584.904,302.689,584.904,302.689 C584.904,302.689,609.996,227.726,609.996,227.726 C609.996,227.726,540.948,180.411,540.948,180.411 C540.948,180.411,627.578,178.815,627.578,178.815 C627.578,178.815,656.027,104.839,656.027,104.839 z"/>
          </defs>
          <use xlink:href="#11" style="fill:#2a3338;fill-opacity:1;fill-rule:evenodd;opacity:1;stroke:none;"/>
        </g>
      </defs>
      <use xlink:href="#10"/>
      <defs>
        <title>Shape 402</title>
        <g id="12">
          <defs>
            <path id="13" d="M656.027,106.232 C665.355,130.486,674.682,154.74,684.01,178.994 C684.05,179.099,684.091,179.204,684.131,179.309 C684.243,179.311,684.355,179.313,684.467,179.315 C712.823,179.837,741.179,180.359,769.535,180.882 C746.949,196.359,724.363,211.836,701.777,227.314 C701.673,227.385,701.569,227.456,701.465,227.527 C701.505,227.646,701.545,227.766,701.585,227.885 C709.801,252.43,718.017,276.975,726.232,301.52 C702.919,286.857,679.607,272.195,656.294,257.532 C656.205,257.476,656.116,257.42,656.027,257.364 C655.939,257.42,655.85,257.476,655.761,257.532 C632.448,272.195,609.135,286.857,585.823,301.52 C594.038,276.975,602.254,252.43,610.47,227.885 C610.51,227.766,610.55,227.646,610.59,227.527 C610.486,227.456,610.382,227.385,610.278,227.314 C587.692,211.836,565.106,196.359,542.52,180.882 C570.876,180.359,599.232,179.837,627.587,179.315 C627.7,179.313,627.812,179.311,627.924,179.309 C627.964,179.204,628.005,179.099,628.045,178.994 C637.372,154.74,646.7,130.486,656.027,106.232 z M655.561,104.659 C646.118,129.213,636.675,153.767,627.232,178.321 C598.468,178.851,569.703,179.381,540.939,179.911 C540.418,179.92,539.897,179.93,539.376,179.939 C539.806,180.234,540.235,180.529,540.665,180.823 C563.577,196.524,586.49,212.225,609.402,227.925 C601.078,252.793,592.754,277.662,584.43,302.53 C584.282,302.972,584.134,303.415,583.986,303.857 C584.381,303.609,584.776,303.36,585.171,303.112 C608.789,288.256,632.408,273.401,656.027,258.546 C679.646,273.401,703.265,288.256,726.884,303.112 C727.279,303.36,727.674,303.609,728.069,303.857 C727.921,303.415,727.773,302.972,727.625,302.53 C719.301,277.662,710.977,252.793,702.653,227.925 C725.565,212.225,748.478,196.524,771.39,180.823 C771.82,180.529,772.249,180.234,772.679,179.939 C772.158,179.93,771.637,179.92,771.116,179.911 C742.352,179.381,713.587,178.851,684.823,178.321 C675.38,153.767,665.937,129.213,656.494,104.659 C656.339,104.255,656.183,103.85,656.027,103.446 C655.872,103.85,655.716,104.255,655.561,104.659 z"/>
          </defs>
          <use xlink:href="#13" style="fill:#2a3338;fill-opacity:1;fill-rule:evenodd;opacity:1;stroke:none;"/>
        </g>
      </defs>
      <use xlink:href="#12"/>
    </g>
  </g>
</svg>
