<?xml version="1.0" encoding="utf-8"?>
<svg x="195.704pt" y="543.338pt" width="1032.64pt" height="200.411pt" viewBox="195.704 543.338 1032.64 200.411" xmlns="http://www.w3.org/2000/svg" xmlns:xlink="http://www.w3.org/1999/xlink">
  <defs>
    <title>Text</title>
    <g id="1">
      <defs>
        <path id="2" d="M372.708,621.062 C381.214,621.795,388.108,623.702,393.388,626.782 C396.174,628.248,398.521,630.082,400.428,632.282 C402.334,634.482,403.874,637.048,405.048,639.982 C405.048,639.982,405.488,641.302,405.488,641.302 C406.221,643.795,406.734,646.325,407.028,648.892 C407.321,651.458,407.541,654.135,407.688,656.922 C407.688,662.935,406.954,669.095,405.488,675.402 C401.528,695.055,394.121,709.208,383.268,717.862 C373.001,726.808,358.114,731.282,338.608,731.282 C338.608,731.282,223.108,731.282,223.108,731.282 C219.001,731.282,215.481,730.695,212.548,729.522 C209.614,728.348,207.121,726.808,205.068,724.902 C203.014,722.995,201.364,720.832,200.118,718.412 C198.871,715.992,197.954,713.535,197.368,711.042 C195.754,705.175,195.314,698.355,196.048,690.582 C196.048,690.582,197.148,685.522,197.148,685.522 C197.588,682.588,199.274,681.122,202.208,681.122 C202.208,681.122,328.708,681.122,328.708,681.122 C330.321,681.122,331.898,681.048,333.438,680.902 C334.978,680.755,336.408,680.462,337.728,680.022 C340.514,679.142,342.201,677.528,342.788,675.182 C343.081,674.155,343.044,673.092,342.678,671.992 C342.311,670.892,341.614,670.195,340.588,669.902 C339.708,669.462,338.681,669.168,337.508,669.022 C336.334,668.875,335.161,668.728,333.988,668.582 C333.988,668.582,246.868,668.362,246.868,668.362 C238.361,667.922,231.468,666.088,226.188,662.862 C223.401,661.248,220.944,659.452,218.818,657.472 C216.691,655.492,214.968,653.182,213.648,650.542 C212.621,648.488,211.741,646.142,211.008,643.502 C210.274,640.862,209.761,637.928,209.468,634.702 C209.321,629.128,209.908,622.748,211.228,615.562 C213.281,606.028,215.994,597.705,219.368,590.592 C222.741,583.478,226.848,577.575,231.688,572.882 C241.221,563.348,254.421,558.582,271.288,558.582 C271.288,558.582,392.948,558.582,392.948,558.582 C398.374,559.315,403.214,560.855,407.468,563.202 C411.134,565.255,414.471,568.115,417.478,571.782 C420.484,575.448,421.988,580.508,421.988,586.962 C421.988,586.962,419.128,604.342,419.128,604.342 C418.834,605.662,418.248,606.688,417.368,607.422 C416.048,608.302,414.948,608.742,414.068,608.742 C414.068,608.742,286.468,608.742,286.468,608.742 C283.534,608.742,280.968,609.182,278.768,610.062 C275.981,610.942,274.368,612.482,273.928,614.682 C273.634,615.708,273.818,617.028,274.478,618.642 C275.138,620.255,277.374,621.135,281.188,621.282 z M543.428,727.102 C543.134,728.275,542.511,729.265,541.558,730.072 C540.604,730.878,539.541,731.282,538.368,731.282 C538.368,731.282,481.828,731.282,481.828,731.282 C480.654,731.282,479.738,730.878,479.078,730.072 C478.418,729.265,478.234,728.275,478.528,727.102 C478.528,727.102,503.168,610.942,503.168,610.942 C503.168,610.942,438.268,610.942,438.268,610.942 C437.094,610.942,436.178,610.538,435.518,609.732 C434.858,608.925,434.674,607.935,434.968,606.762 C434.968,606.762,444.428,562.542,444.428,562.542 C444.721,561.368,445.344,560.378,446.298,559.572 C447.251,558.765,448.314,558.362,449.488,558.362 C449.488,558.362,641.768,558.362,641.768,558.362 C642.941,558.362,643.858,558.765,644.518,559.572 C645.178,560.378,645.361,561.368,645.068,562.542 C645.068,562.542,635.608,606.762,635.608,606.762 C635.314,607.935,634.691,608.925,633.738,609.732 C632.784,610.538,631.721,610.942,630.548,610.942 C630.548,610.942,568.068,610.942,568.068,610.942 z M960.548,724.022 C961.721,725.195,961.794,726.662,960.768,728.422 C959.888,730.182,958.348,731.062,956.148,731.062 C956.148,731.062,888.388,731.062,888.388,731.062 C888.388,731.062,815.568,649.882,815.568,649.882 C815.568,649.882,799.288,726.882,799.288,726.882 C798.848,728.202,798.188,729.228,797.308,729.962 C796.281,730.695,795.254,731.062,794.228,731.062 C794.228,731.062,737.468,731.062,737.468,731.062 C736.294,731.062,735.341,730.695,734.608,729.962 C734.314,729.522,734.094,729.082,733.948,728.642 C733.801,728.202,733.874,727.615,734.168,726.882 C734.168,726.882,769.148,562.102,769.148,562.102 C769.294,561.222,769.881,560.268,770.908,559.242 C771.788,558.508,772.888,558.142,774.208,558.142 C774.208,558.142,907.968,558.142,907.968,558.142 C914.274,558.142,919.921,558.398,924.908,558.912 C929.894,559.425,934.514,560.048,938.768,560.782 C947.128,562.542,953.361,565.622,957.468,570.022 C961.868,574.422,964.508,580.142,965.388,587.182 C966.121,594.808,965.388,604.122,963.188,615.122 C961.281,623.775,958.934,631.695,956.148,638.882 C954.681,642.255,953.104,645.372,951.418,648.232 C949.731,651.092,947.861,653.695,945.808,656.042 C941.848,660.735,937.154,664.475,931.728,667.262 C929.234,668.728,926.374,669.938,923.148,670.892 C919.921,671.845,916.548,672.615,913.028,673.202 z M888.608,629.422 C891.541,629.422,894.108,628.762,896.308,627.442 C898.654,625.828,900.194,623.775,900.928,621.282 C901.368,618.935,900.708,617.028,898.948,615.562 C897.334,614.242,895.208,613.582,892.568,613.582 C892.568,613.582,823.268,613.582,823.268,613.582 C823.268,613.582,819.968,629.422,819.968,629.422 z M1069.45,558.362 C1070.62,558.362,1071.54,558.765,1072.2,559.572 C1072.86,560.378,1073.04,561.368,1072.75,562.542 C1072.75,562.542,1059.55,623.922,1059.55,623.922 C1073.77,613.068,1088.26,602.105,1103,591.032 C1117.74,579.958,1132.15,569.068,1146.23,558.362 C1146.23,558.362,1224.77,558.362,1224.77,558.362 C1226.82,558.362,1227.99,559.242,1228.29,561.002 C1228.58,562.762,1227.77,564.302,1225.87,565.622 C1225.87,565.622,1119.39,641.742,1119.39,641.742 C1119.39,641.742,1177.25,697.622,1177.25,697.622 C1177.25,697.622,1204.31,723.802,1204.31,723.802 C1205.48,724.975,1205.59,726.515,1204.64,728.422 C1203.68,730.328,1202.18,731.282,1200.13,731.282 C1200.13,731.282,1114.99,731.282,1114.99,731.282 C1114.99,731.282,1051.85,660.442,1051.85,660.442 C1051.85,660.442,1037.77,727.102,1037.77,727.102 C1037.47,728.275,1036.85,729.265,1035.9,730.072 C1034.94,730.878,1033.88,731.282,1032.71,731.282 C1032.71,731.282,975.948,731.282,975.948,731.282 C974.774,731.282,973.858,730.878,973.198,730.072 C972.538,729.265,972.354,728.275,972.648,727.102 C972.648,727.102,1007.63,562.542,1007.63,562.542 C1007.92,561.368,1008.54,560.378,1009.5,559.572 C1010.45,558.765,1011.51,558.362,1012.69,558.362 z"/>
      </defs>
      <use xlink:href="#2" style="fill:#ffffff;fill-opacity:1;fill-rule:nonzero;opacity:1;stroke:none;"/>
    </g>
  </defs>
  <use xlink:href="#1"/>
  <g id="3">
    <title>Group</title>
    <defs>
      <title>Shape 401</title>
      <g id="4">
        <defs>
          <path id="5" d="M664.117,544.731 C664.117,544.731,692.566,618.707,692.566,618.707 C692.566,618.707,779.197,620.303,779.197,620.303 C779.197,620.303,710.149,667.618,710.149,667.618 C710.149,667.618,735.24,742.581,735.24,742.581 C735.24,742.581,664.117,697.847,664.117,697.847 C664.117,697.847,592.994,742.581,592.994,742.581 C592.994,742.581,618.085,667.618,618.085,667.618 C618.085,667.618,549.038,620.303,549.038,620.303 C549.038,620.303,635.668,618.707,635.668,618.707 C635.668,618.707,664.117,544.731,664.117,544.731 z"/>
        </defs>
        <use xlink:href="#5" style="fill:#aaaaaa;fill-opacity:1;fill-rule:evenodd;opacity:1;stroke:none;"/>
      </g>
    </defs>
    <use xlink:href="#4"/>
    <defs>
      <title>Shape 402</title>
      <g id="6">
        <defs>
          <path id="7" d="M664.117,546.124 C673.445,570.378,682.772,594.632,692.1,618.886 C692.14,618.991,692.18,619.096,692.221,619.201 C692.333,619.203,692.445,619.205,692.557,619.207 C720.913,619.729,749.269,620.252,777.625,620.774 C755.039,636.251,732.453,651.729,709.866,667.206 C709.763,667.277,709.659,667.348,709.555,667.419 C709.595,667.538,709.635,667.658,709.675,667.777 C717.891,692.322,726.106,716.867,734.322,741.412 C711.009,726.75,687.696,712.087,664.383,697.424 C664.295,697.368,664.206,697.312,664.117,697.256 C664.028,697.312,663.94,697.368,663.851,697.424 C640.538,712.087,617.225,726.75,593.912,741.412 C602.128,716.867,610.344,692.322,618.56,667.777 C618.599,667.658,618.639,667.538,618.679,667.419 C618.576,667.348,618.472,667.277,618.368,667.206 C595.782,651.729,573.196,636.251,550.61,620.774 C578.966,620.252,607.321,619.729,635.677,619.207 C635.789,619.205,635.902,619.203,636.014,619.201 C636.054,619.096,636.094,618.991,636.135,618.886 C645.462,594.632,654.79,570.378,664.117,546.124 z M663.65,544.551 C654.208,569.105,644.765,593.659,635.322,618.213 C606.558,618.743,577.793,619.273,549.028,619.803 C548.507,619.812,547.987,619.822,547.466,619.832 C547.895,620.126,548.325,620.421,548.755,620.715 C571.667,636.416,594.579,652.117,617.491,667.817 C609.168,692.686,600.844,717.554,592.52,742.422 C592.372,742.864,592.224,743.307,592.076,743.749 C592.471,743.501,592.865,743.252,593.26,743.004 C616.879,728.149,640.498,713.293,664.117,698.438 C687.736,713.293,711.355,728.149,734.974,743.004 C735.369,743.252,735.764,743.501,736.159,743.749 C736.011,743.307,735.862,742.864,735.714,742.422 C727.391,717.554,719.067,692.686,710.743,667.817 C733.655,652.117,756.567,636.416,779.479,620.715 C779.909,620.421,780.339,620.126,780.769,619.832 C780.248,619.822,779.727,619.812,779.206,619.803 C750.441,619.273,721.677,618.743,692.912,618.213 C683.469,593.659,674.027,569.105,664.584,544.551 C664.428,544.147,664.273,543.742,664.117,543.338 C663.962,543.742,663.806,544.147,663.65,544.551 z"/>
        </defs>
        <use xlink:href="#7" style="fill:#000000;fill-opacity:1;fill-rule:nonzero;opacity:1;stroke:none;"/>
      </g>
    </defs>
    <use xlink:href="#6"/>
    <defs>
      <title>Group</title>
      <g id="8">
        <defs>
          <path id="9" d="M664.117,544.731 C664.117,544.731,692.566,618.707,692.566,618.707 C692.566,618.707,779.197,620.303,779.197,620.303 C779.197,620.303,710.149,667.618,710.149,667.618 C710.149,667.618,735.24,742.581,735.24,742.581 C735.24,742.581,664.117,697.847,664.117,697.847 C664.117,697.847,592.994,742.581,592.994,742.581 C592.994,742.581,618.085,667.618,618.085,667.618 C618.085,667.618,549.038,620.303,549.038,620.303 C549.038,620.303,635.668,618.707,635.668,618.707 C635.668,618.707,664.117,544.731,664.117,544.731 z M664.117,546.124 C673.445,570.378,682.772,594.632,692.1,618.886 C692.14,618.991,692.18,619.096,692.221,619.201 C692.333,619.203,692.445,619.205,692.557,619.207 C720.913,619.729,749.269,620.252,777.625,620.774 C755.039,636.251,732.453,651.729,709.866,667.206 C709.763,667.277,709.659,667.348,709.555,667.419 C709.595,667.538,709.635,667.658,709.675,667.777 C717.891,692.322,726.106,716.867,734.322,741.412 C711.009,726.75,687.696,712.087,664.383,697.424 C664.295,697.368,664.206,697.312,664.117,697.256 C664.028,697.312,663.94,697.368,663.851,697.424 C640.538,712.087,617.225,726.75,593.912,741.412 C602.128,716.867,610.344,692.322,618.56,667.777 C618.599,667.658,618.639,667.538,618.679,667.419 C618.576,667.348,618.472,667.277,618.368,667.206 C595.782,651.729,573.196,636.251,550.61,620.774 C578.966,620.252,607.321,619.729,635.677,619.207 C635.789,619.205,635.902,619.203,636.014,619.201 C636.054,619.096,636.094,618.991,636.135,618.886 C645.462,594.632,654.79,570.378,664.117,546.124 z M663.65,544.551 C654.208,569.105,644.765,593.659,635.322,618.213 C606.558,618.743,577.793,619.273,549.028,619.803 C548.507,619.812,547.987,619.822,547.466,619.832 C547.895,620.126,548.325,620.421,548.755,620.715 C571.667,636.416,594.579,652.117,617.491,667.817 C609.168,692.686,600.844,717.554,592.52,742.422 C592.372,742.864,592.224,743.307,592.076,743.749 C592.471,743.501,592.865,743.252,593.26,743.004 C616.879,728.149,640.498,713.293,664.117,698.438 C687.736,713.293,711.355,728.149,734.974,743.004 C735.369,743.252,735.764,743.501,736.159,743.749 C736.011,743.307,735.862,742.864,735.714,742.422 C727.391,717.554,719.067,692.686,710.743,667.817 C733.655,652.117,756.567,636.416,779.479,620.715 C779.909,620.421,780.339,620.126,780.769,619.832 C780.248,619.822,779.727,619.812,779.206,619.803 C750.441,619.273,721.677,618.743,692.912,618.213 C683.469,593.659,674.027,569.105,664.584,544.551 C664.428,544.147,664.273,543.742,664.117,543.338 C663.962,543.742,663.806,544.147,663.65,544.551 z"/>
        </defs>
        <use xlink:href="#9" style="fill:#9e9e9e;fill-opacity:1;fill-rule:nonzero;opacity:1;stroke:none;"/>
      </g>
    </defs>
    <use xlink:href="#8"/>
  </g>
</svg>
